<mxfile host="app.diagrams.net" modified="2024-05-21T16:21:20.539Z" agent="Mozilla/5.0 (X11; Ubuntu; Linux x86_64; rv:126.0) Gecko/20100101 Firefox/126.0" version="24.4.4" etag="icOvrFfy5Q-e0NB5gxB-" type="github">
  <diagram name="페이지-1" id="K03GMKaNQ1-Nf_fOwJG4">
    <mxGraphModel>
      <root>
        <mxCell id="0" />
        <mxCell id="1" parent="0" />
      </root>
    </mxGraphModel>
  </diagram>
</mxfile>
